<?xml version="1.0" encoding="utf-8"?>
<!-- Generator: Adobe Illustrator 17.0.0, SVG Export Plug-In . SVG Version: 6.00 Build 0)  -->
<!DOCTYPE svg PUBLIC "-//W3C//DTD SVG 1.1//EN" "http://www.w3.org/Graphics/SVG/1.1/DTD/svg11.dtd">
<svg version="1.1" id="Layer_1" xmlns="http://www.w3.org/2000/svg" xmlns:xlink="http://www.w3.org/1999/xlink" x="0px" y="0px"
	 width="960px" height="180.537px" viewBox="0 0 960 180.537" enable-background="new 0 0 960 180.537" xml:space="preserve">
<g>
	<g>
		<path fill="#1D3557" d="M151.593,88.737c0.657,38.695-22.953,77.828-76.515,77.828c-18.8,0-41.316,0-60.116,0V13.54
			c18.8,0,41.316,0,60.116,0C127.546,13.54,150.937,50.922,151.593,88.737z M43.6,138.802h31.478
			c34.761,0,48.533-25.361,47.876-50.284c-0.657-23.823-14.647-47.652-47.876-47.652H43.6V138.802z"/>
		<path fill="#1D3557" d="M347.279,166.565h-34.323l-44.594-51.154h-27.768v51.154h-28.852V13.321
			c24.261,0,48.528,0.219,72.794,0.219c36.069,0.219,55.088,24.261,55.088,50.716c0,20.984-9.619,42.191-38.69,48.09l46.344,52.248
			V166.565z M240.594,40.428v48.965h43.942c18.363,0,26.231-12.24,26.231-24.48c0-12.245-8.087-24.485-26.231-24.485H240.594z"/>
		<path fill="#1D3557" d="M713.065,13.321h28.857v153.243h-17.925v0.219L643.548,63.381v103.183h-28.857V13.54h23.391l74.983,94.872
			V13.321z"/>
		<path fill="#1D3557" d="M945.038,166.565h-34.323l-44.594-51.154h-27.768v51.154h-28.852V13.321
			c24.261,0,48.528,0.219,72.794,0.219c36.069,0.219,55.088,24.261,55.088,50.716c0,20.984-9.619,42.191-38.69,48.09l46.344,52.248
			V166.565z M838.353,40.428v48.965h43.942c18.363,0,26.231-12.24,26.231-24.48c0-12.245-8.087-24.485-26.231-24.485H838.353z"/>
	</g>
	<path fill="#457C9D" d="M426.761,133.041v-26.073H400.85v46.899c0,8.582,6.997,15.524,15.579,15.524h50.452v-25.855h-29.626
		C431.461,143.536,426.761,138.835,426.761,133.041z M416.429,11.147c-8.582,0-15.579,6.942-15.579,15.578V80.73h25.911V47.496
		c0-5.794,4.7-10.495,10.495-10.495h29.626V11.147H416.429z M533.24,133.041c0,5.794-4.647,10.495-10.441,10.495h-29.681v25.855
		h50.452c8.582,0,15.579-6.942,15.579-15.524v-46.899H533.24V133.041z M543.571,11.147h-50.452v25.855h29.681
		c5.794,0,10.441,4.701,10.441,10.495V80.73h25.909V26.725C559.15,18.089,552.153,11.147,543.571,11.147z"/>
	<circle fill="#1D3557" cx="480" cy="90.269" r="14.968"/>
</g>
</svg>
