<?xml version="1.0" encoding="utf-8"?>
<!-- Generator: Adobe Illustrator 17.0.0, SVG Export Plug-In . SVG Version: 6.00 Build 0)  -->
<!DOCTYPE svg PUBLIC "-//W3C//DTD SVG 1.1//EN" "http://www.w3.org/Graphics/SVG/1.1/DTD/svg11.dtd">
<svg version="1.1" id="Layer_1_copy" xmlns="http://www.w3.org/2000/svg" xmlns:xlink="http://www.w3.org/1999/xlink" x="0px"
	 y="0px" width="960px" height="180.537px" viewBox="0 0 960 180.537" enable-background="new 0 0 960 180.537"
	 xml:space="preserve">
<g id="XMLID_2_">
	<g id="XMLID_1_">
		<g>
			<path fill="#3764A4" d="M945.04,164.598v1.97h-34.32l-44.6-51.16h-27.77v51.16H809.5V13.318c24.26,0,48.53,0.22,72.8,0.22
				c36.06,0.22,55.08,24.26,55.08,50.72c0,20.98-9.62,42.19-38.69,48.09L945.04,164.598z M882.3,89.388
				c18.36,0,26.23-12.24,26.23-24.48s-8.09-24.48-26.23-24.48h-43.95v48.96H882.3z"/>
			<polygon fill="#3764A4" points="741.92,13.318 741.92,166.568 724,166.568 724,166.778 643.55,63.378 643.55,166.568 
				614.69,166.568 614.69,13.538 638.08,13.538 713.06,108.408 713.06,13.318 713.07,13.318 			"/>
			<path fill="#C8D9F0" d="M559.15,106.968v46.9c0,8.58-7,15.52-15.58,15.52h-50.45v-25.85h29.68c5.79,0,10.44-4.7,10.44-10.5
				v-26.07H559.15z"/>
			<path fill="#C8D9F0" d="M559.15,26.728v54h-25.91v-33.23c0-5.8-4.65-10.5-10.44-10.5h-29.68v-25.85h50.45
				C552.15,11.148,559.15,18.088,559.15,26.728z"/>
			<circle fill="#3764A4" cx="480" cy="90.268" r="14.97"/>
			<path fill="#C8D9F0" d="M466.88,143.538v25.85h-50.45c-8.58,0-15.58-6.94-15.58-15.52v-46.9h25.91v26.07
				c0,5.8,4.7,10.5,10.5,10.5H466.88z"/>
			<path fill="#C8D9F0" d="M466.88,11.148v25.85h-29.62c-5.8,0-10.5,4.7-10.5,10.5v33.23h-25.91v-54c0-8.64,7-15.58,15.58-15.58
				H466.88z"/>
			<path fill="#3764A4" d="M347.28,164.598v1.97h-34.32l-44.6-51.16h-27.77v51.16h-28.85V13.318c24.26,0,48.53,0.22,72.8,0.22
				c36.06,0.22,55.08,24.26,55.08,50.72c0,20.98-9.61,42.19-38.69,48.09L347.28,164.598z M284.54,89.388
				c18.36,0,26.23-12.24,26.23-24.48s-8.09-24.48-26.23-24.48h-43.95v48.96H284.54z"/>
			<path fill="#3764A4" d="M151.59,88.738c0.66,38.69-22.95,77.83-76.51,77.83c-18.8,0-41.32,0-60.12,0V13.538
				c18.8,0,41.32,0,60.12,0C127.55,13.538,150.94,50.918,151.59,88.738z M75.08,138.798c34.76,0,48.53-25.36,47.87-50.28
				c-0.65-23.82-14.64-47.65-47.87-47.65H43.6v97.93H75.08z"/>
		</g>
		<g>
		</g>
	</g>
</g>
</svg>
