<?xml version="1.0" standalone="no"?>
<!DOCTYPE svg PUBLIC "-//W3C//DTD SVG 20010904//EN"
 "http://www.w3.org/TR/2001/REC-SVG-20010904/DTD/svg10.dtd">
<svg version="1.0" xmlns="http://www.w3.org/2000/svg"
 width="601.000000pt" height="109.000000pt" viewBox="0 0 601.000000 109.000000"
 preserveAspectRatio="xMidYMid meet">
<metadata>
Created by potrace 1.13, written by Peter Selinger 2001-2015
</metadata>
<g transform="translate(0.000000,109.000000) scale(0.100000,-0.100000)"
fill="#000000" stroke="none">
<path d="M130 935 l95 -95 277 0 278 0 141 -137 141 -138 -141 -137 -141 -138
-95 0 -95 0 0 -95 0 -95 143 0 142 0 233 233 232 232 -233 233 -232 232 -420
0 -420 0 95 -95z"/>
<path d="M1252 935 l91 -95 206 0 205 0 48 -47 48 -47 -70 -71 -70 -70 143 3
142 3 67 66 67 66 -137 143 -137 144 -347 0 -348 0 92 -95z"/>
<path d="M2876 935 l-88 -95 228 0 229 0 72 -72 73 -72 0 -203 0 -203 -257 0
-258 0 -92 92 -93 93 142 142 143 143 -140 0 -140 0 -143 -143 -142 -142 188
-188 187 -187 418 0 417 0 0 323 0 322 -143 143 -142 142 -186 0 -186 0 -87
-95z"/>
<path d="M3530 935 l95 -95 140 0 140 0 370 -370 370 -370 117 0 118 0 0 370
0 370 207 0 207 0 48 -47 48 -47 -70 -71 -70 -70 143 3 142 3 67 66 67 66
-137 143 -137 144 -372 0 -373 0 0 -327 0 -328 -328 328 -327 327 -280 0 -280
0 95 -95z"/>
<path d="M270 425 l0 -325 115 0 115 0 0 325 0 325 -115 0 -115 0 0 -325z"/>
<path d="M1390 425 l0 -325 115 0 115 0 0 325 0 325 -115 0 -115 0 0 -325z"/>
<path d="M3670 425 l0 -325 115 0 115 0 0 325 0 325 -115 0 -115 0 0 -325z"/>
<path d="M4930 425 l0 -325 115 0 115 0 0 325 0 325 -115 0 -115 0 0 -325z"/>
<path d="M1710 425 l0 -95 98 0 97 0 115 -115 115 -115 135 0 136 0 -211 210
-211 210 -137 0 -137 0 0 -95z"/>
<path d="M5250 425 l0 -95 98 0 97 0 115 -115 115 -115 135 0 136 0 -211 210
-211 210 -137 0 -137 0 0 -95z"/>
</g>
</svg>
