<?xml version="1.0" standalone="no"?>
<!DOCTYPE svg PUBLIC "-//W3C//DTD SVG 20010904//EN"
 "http://www.w3.org/TR/2001/REC-SVG-20010904/DTD/svg10.dtd">
<svg version="1.0" xmlns="http://www.w3.org/2000/svg"
 width="335.000000pt" height="74.000000pt" viewBox="0 0 335.000000 74.000000"
 preserveAspectRatio="xMidYMid meet">
<metadata>
Created by potrace 1.13, written by Peter Selinger 2001-2015
</metadata>
<g transform="translate(0.000000,74.000000) scale(0.100000,-0.100000)"
fill="#000000" stroke="none">
<path d="M2937 691 c-37 -33 -80 -113 -98 -184 -6 -27 -10 -89 -7 -149 5 -123
29 -189 90 -244 71 -64 107 -23 39 45 -50 50 -71 116 -71 227 0 108 27 193 80
258 32 38 38 52 29 62 -16 20 -24 18 -62 -15z"/>
<path d="M3060 705 c-10 -12 -6 -21 20 -52 18 -20 45 -62 59 -93 24 -50 26
-66 25 -175 0 -138 -12 -174 -74 -237 -64 -63 -28 -96 42 -38 61 50 90 124 96
240 5 114 -7 180 -51 263 -28 53 -77 107 -97 107 -4 0 -13 -7 -20 -15z"/>
<path d="M2610 635 c-8 -10 -10 -29 -6 -55 l6 -40 -45 0 c-33 0 -47 -5 -52
-16 -9 -23 23 -44 64 -44 l33 0 0 -129 c0 -102 3 -131 15 -141 8 -7 22 -10 30
-6 12 4 15 29 15 141 l0 135 34 0 c50 0 66 9 66 36 0 22 -4 24 -50 24 -49 0
-50 1 -50 29 0 66 -31 101 -60 66z"/>
<path d="M2370 489 l-65 -72 -47 62 c-50 63 -66 72 -88 46 -11 -13 -9 -20 12
-43 13 -15 37 -45 53 -66 l28 -39 -67 -64 c-43 -40 -66 -70 -64 -80 6 -35 37
-24 101 36 l64 61 54 -65 c56 -68 69 -75 89 -50 14 17 11 22 -52 98 l-49 59
66 69 c36 38 65 75 65 82 0 13 -19 37 -30 37 -3 0 -35 -32 -70 -71z"/>
<path d="M185 538 c-2 -7 -6 -77 -10 -155 -6 -145 0 -183 30 -183 21 0 29 20
26 64 -3 64 17 131 56 175 35 41 65 52 80 29 4 -7 8 -49 9 -93 2 -146 22 -201
59 -164 19 19 3 261 -20 295 -30 46 -97 43 -146 -6 l-29 -28 0 27 c0 41 -44
72 -55 39z"/>
<path d="M1475 538 c-2 -7 -6 -77 -10 -155 -6 -145 0 -183 30 -183 21 0 29 20
26 64 -3 64 17 131 56 175 35 41 65 52 80 29 4 -7 8 -49 9 -93 2 -146 22 -201
59 -164 19 19 3 261 -20 295 -30 46 -97 43 -146 -6 l-29 -28 0 27 c0 41 -44
72 -55 39z"/>
<path d="M600 529 c-60 -24 -100 -92 -100 -169 0 -87 48 -149 122 -157 86 -9
150 66 150 176 0 120 -77 188 -172 150z m96 -70 c15 -16 19 -36 19 -86 0 -59
-3 -67 -28 -89 -36 -31 -71 -31 -102 1 -40 39 -32 128 15 175 26 26 72 26 96
-1z"/>
<path d="M842 528 c-18 -23 27 -272 58 -318 18 -28 44 4 84 104 21 53 41 95
43 92 3 -3 11 -39 18 -81 23 -129 68 -165 105 -82 29 64 83 266 76 283 -3 9
-15 14 -28 12 -19 -3 -25 -18 -50 -118 -16 -63 -31 -122 -35 -130 -3 -8 -16
41 -29 109 -13 68 -28 129 -34 135 -22 22 -45 -12 -77 -109 -45 -136 -44 -136
-54 -95 -4 19 -11 66 -14 105 -4 38 -11 78 -16 88 -11 20 -32 22 -47 5z"/>
<path d="M1869 517 c-70 -46 -103 -178 -62 -248 27 -45 93 -73 158 -66 92 9
157 60 122 94 -13 13 -19 12 -47 -8 -45 -33 -139 -34 -172 -2 -12 12 -20 24
-17 26 2 2 38 18 79 37 107 48 130 65 130 101 0 43 -15 65 -51 78 -51 18 -103
13 -140 -12z"/>
</g>
</svg>
